<svg xmlns="http://www.w3.org/2000/svg"
   height="20"
   width="20"
   stroke-width="1"
   stroke-linecap="square"
   fill="none">

  <g id="feet">
    <path fill="#3e3" stroke="#000"
       d="m 11,6.5 c 0,0 1.5,0.5 2,1 1.4,1.3 3.1,3.8 3,5 -0.15,1.2 -1,1 -1,1 l -10,0
          c 0,0 -0.9,0.2 -1,-1 -0.1,-1.2 1.6,-3.7 3,-5 0.5,-0.5 2,-1 2,-1 z" />
    <path d="m 6,12.5 2,-2 0,2 z M 11,9.5 l 0,3 3,0 z" fill="#0a0" />
  </g>

  <g id="feet">
    <path d="m 6,12.5 0,5.5 8,0 0,-5.5 z" fill="#7272ff" />
    <path d="m 7,17.5 2,0 0,-3 M 11,17.5 l 2,0 0,-4.5" stroke="#4141ff" />
    <path d="m 6,17 0,1.5 8,0 0,-1.5" stroke="#b86e31" />
    <path d="m 14,12.5 0,4 1,1 0,2 -5,0 0,-5.5 0,5.5 -5,0 0,-2 1,-1 0,-4" stroke="#000" />
  </g>

  <g stroke="black" id="head">
    <path fill="#ffdc00"
        d="m 6,3.5 c -0.1,1 1,2 1,2 0,0 1.3,1.7 2,2 0.7,0.3 1.3,0.3 2,0
             0.7,-0.3 2,-2 2,-2 0,0 1,-1 1,-2 -0,-1 -1,-3 -2,-3 -1,0 -3,0
             -4,0 -1,0 -2,2 -2,3 z" />
    <path d="m 8.5,1.5 4.5,0" stroke-width="1.2" stroke-linecap="round" />
    <path d="M 8,4 9,4 M 11,4 l 1,0"  />
  </g>

  <g fill="#ffdc00" id="hands"> 
    <circle r="1" cy="12.3" cx="5.4" />
    <circle r="1" cy="12.3" cx="14.6" />
  </g>

</svg>
